<?xml version="1.0" standalone="no"?><!DOCTYPE svg PUBLIC "-//W3C//DTD SVG 1.1//EN" "http://www.w3.org/Graphics/SVG/1.1/DTD/svg11.dtd"><svg t="1692595622463" class="icon" viewBox="0 0 1024 1024" version="1.1" xmlns="http://www.w3.org/2000/svg" p-id="29787" xmlns:xlink="http://www.w3.org/1999/xlink" width="128" height="128"><path d="M875.583 317.604v-80.811c0-34.741-24.954-64.975-59.408-71.883l-1.153-0.191H221.137l-1.151 0.191c-34.359 6.908-59.312 37.238-59.312 71.883v80.811c-30.135 11.517-50.387 40.309-50.387 72.844v438.256c0 43.092 35.511 78.218 79.082 78.218h657.612c43.573 0 79.083-35.126 79.083-78.218V390.447c-0.097-32.535-20.442-61.23-50.481-72.843zM229.508 237.85c0-1.439 1.344-2.688 2.879-2.688h575.726c1.534 0 2.88 1.248 2.88 2.688v75.532H229.508V237.85z m630.143 588.453c0 4.127-3.457 7.486-7.774 7.486H188.295c-4.32 0-7.775-3.359-7.775-7.486V388.049c0-4.126 3.455-7.485 7.775-7.485h663.582c4.317 0 7.774 3.359 7.774 7.485v438.254z" fill="#bfbfbf" p-id="29788"></path><path d="M336.401 579.227c30.369 0 54.998-24.265 54.998-54.271s-24.629-54.272-54.998-54.272c-30.368 0-54.999 24.267-54.999 54.272 0 29.931 24.631 54.271 54.999 54.271z m136.937-15.498h249.166c19.675 0 35.606-15.835 35.606-35.318s-16.027-35.318-35.606-35.318H473.338c-19.676 0-35.703 15.835-35.703 35.318s17.063 35.318 36.738 35.318h-1.035z m252.524 85.033H310.586c-19.675 0-35.704 15.836-35.704 35.318 0 19.484 16.029 35.318 35.704 35.318h415.276c19.675 0 35.607-15.834 35.607-35.318 0.001-19.387-16.028-35.318-35.607-35.318z" fill="#bfbfbf" p-id="29789"></path></svg>