<?xml version="1.0" standalone="no"?><!DOCTYPE svg PUBLIC "-//W3C//DTD SVG 1.1//EN" "http://www.w3.org/Graphics/SVG/1.1/DTD/svg11.dtd"><svg t="1692595024860" class="icon" viewBox="0 0 1024 1024" version="1.1" xmlns="http://www.w3.org/2000/svg" p-id="7658" xmlns:xlink="http://www.w3.org/1999/xlink" width="128" height="128"><path d="M341.333333 166.4h-106.666666A68.266667 68.266667 0 0 0 166.4 234.666667v640a68.266667 68.266667 0 0 0 68.266667 68.266666h597.333333a68.266667 68.266667 0 0 0 68.266667-68.266666V234.666667A68.266667 68.266667 0 0 0 832 166.4h-128v51.2h128a17.066667 17.066667 0 0 1 17.066667 17.066667v640a17.066667 17.066667 0 0 1-17.066667 17.066666H234.666667a17.066667 17.066667 0 0 1-17.066667-17.066666V234.666667a17.066667 17.066667 0 0 1 17.066667-17.066667h106.666666V166.4z" fill="#bfbfbf" p-id="7659"></path><path d="M273.066667 746.666667a25.6 25.6 0 0 1 25.6-25.6h448a25.6 25.6 0 0 1 0 51.2H298.666667a25.6 25.6 0 0 1-25.6-25.6zM273.066667 405.333333a25.6 25.6 0 0 1 25.6-25.6h149.333333a25.6 25.6 0 0 1 0 51.2h-149.333333a25.6 25.6 0 0 1-25.6-25.6zM273.066667 554.666667a25.6 25.6 0 0 1 25.6-25.6h149.333333a25.6 25.6 0 0 1 0 51.2h-149.333333a25.6 25.6 0 0 1-25.6-25.6zM315.733333 170.666667A89.6 89.6 0 0 1 405.333333 81.066667h234.666667a89.6 89.6 0 0 1 0 179.2H405.333333A89.6 89.6 0 0 1 315.733333 170.666667zM405.333333 132.266667a38.4 38.4 0 0 0 0 76.8h234.666667a38.4 38.4 0 0 0 0-76.8H405.333333z" fill="#bfbfbf" p-id="7660"></path><path d="M744.533333 400.896h-25.344v-35.584h-25.088v35.584h-25.856v-28.16h-24.32v51.2h125.184v-51.2H744.533333v28.16z m-173.312-1.536c-5.632 35.84-15.872 68.096-30.976 97.28l14.08 23.04c3.072-5.376 6.4-11.008 9.472-16.64v89.088h24.064v-14.08h40.192v-21.504l13.568 11.264c19.968-28.672 32-62.464 36.096-101.376h98.048v-24.576H679.253333V428.8H654.933333v13.056h-20.736v24.576h19.2c-3.328 28.672-11.776 54.528-25.344 77.056v-92.16h-43.264c4.864-16.128 8.96-33.536 12.032-51.968h34.816v-25.6H547.413333v25.6h23.808z m16.64 156.16v-81.152h17.152v81.152h-17.152z m94.208-63.744c-3.84 17.664-8.448 32.256-13.568 43.776l19.2 6.912c5.888-13.056 10.752-28.16 14.592-45.056l-20.224-5.632z m72.448-3.84c-3.584 17.92-7.936 32.512-13.056 44.032l20.48 7.68c5.12-13.312 9.472-28.672 13.056-46.336l-20.48-5.376z m-20.736-15.36h-24.32c0 11.008-0.256 22.784-0.512 35.328 0 31.744-19.456 57.6-58.368 77.056l17.408 19.712c26.112-15.104 44.544-33.024 55.04-53.76 7.936 20.48 21.76 38.4 41.472 53.504l17.664-19.2c-23.808-15.36-40.448-37.632-49.92-66.304 0.512-3.072 0.768-6.144 0.768-9.728 0.512-12.288 0.768-24.32 0.768-36.608z" fill="#bfbfbf" p-id="7661"></path></svg>