<?xml version="1.0" standalone="no"?><!DOCTYPE svg PUBLIC "-//W3C//DTD SVG 1.1//EN" "http://www.w3.org/Graphics/SVG/1.1/DTD/svg11.dtd"><svg t="1692595070576" class="icon" viewBox="0 0 1024 1024" version="1.1" xmlns="http://www.w3.org/2000/svg" p-id="10010" xmlns:xlink="http://www.w3.org/1999/xlink" width="128" height="128"><path d="M396.5 67.8h238.8c1.6 0.4 3.1 0.7 4.7 0.8 30.4 1.6 59.8 16.2 79.7 39.2 16.3 18.6 26.4 42.5 28.1 67.2 0.6 8.3 0.3 16.6 0.4 24.8 0 66.7-0.1 133.4 0 200.1 26.3-0.1 52.6 0 78.9 0 10.9 0.2 22-0.6 32.8 1.2 31.5 4.5 60.5 22.9 78.2 49.2 13.7 20 20.8 44.4 19.9 68.6v48.7c0 3.2 0.2 6.6-0.7 9.7-2.1 7.9-8.8 14.3-16.8 15.8-4.7 0.8-9.8 0.5-14.2-1.7-3.5-1.6-6.3-4.4-9.3-6.7-23.8-18.7-51.3-32.7-80.4-40.9-47.8-13.6-99.9-11.5-146.4 6-74.3 0.1-148.7 0-223 0-11.7-0.3-23.4 1.1-34.6 4.3-28.3 7.9-53.3 27-68.3 52.2-11.1 18.4-16.9 40-16.7 61.4v289.5H187.2c-30.2-0.3-59.8-13.3-80.8-35-12.3-12.7-21.7-28.2-27.1-45.1-3.2-9.2-4.4-18.9-5.6-28.4V508.9c0.9-6.4 1.4-12.9 2.9-19.2 5.6-25.3 20.2-48.4 40.5-64.6 20.6-16.6 47.1-25.8 73.5-25.2h93.1V189.2c-0.1-8.9 0.3-17.9 2-26.6 4.6-25.5 18.3-49.3 38-66.2 17.9-15.6 40.8-25.4 64.5-27.5 2.9-0.3 5.7-0.3 8.3-1.1m40.3 231c-7.1 1.8-13 7.5-15.2 14.4-1.3 3.7-1 7.7-1 11.6 0.5 8.8 7.1 16.8 15.6 19.2 3.2 1 6.6 0.9 9.9 0.9h140c10.9 0.1 20.7-9.3 21.3-20.1 0.5-6-0.2-12.4-3.9-17.4-3.9-5.6-10.5-9.3-17.3-9.3h-140c-3.2 0.1-6.4-0.2-9.4 0.7m5 105.2c-6.8 0.8-13.1 5-16.3 11-3 5.1-3.3 11.2-2.6 16.9 1.1 8.2 7.2 15.5 15.2 17.8 3.4 1.2 7.1 0.9 10.7 0.9h140c7.6-0.2 14.8-4.9 18.2-11.5 2.9-5.4 3.1-11.9 2.1-17.8-1.8-10.1-11.8-18-22.1-17.4-48.4 0-96.8-0.2-145.2 0.1M213.2 573.2c-10.1 1-18.8 9.9-19.2 20.1 0 3.9-0.4 7.9 1 11.7 2.7 8.4 10.9 14.7 19.8 14.9h28.4c10.8-0.1 20.5-9.6 20.8-20.3 0-3.9 0.4-8-1.1-11.7-2.9-8.6-11.6-15-20.7-14.7-9.7 0-19.4-0.2-29 0m-4.3 106.6c-8.2 2.6-14.4 10.3-15 18.9-0.1 4.7-0.3 9.5 1.7 13.9 3.3 7.4 10.9 12.9 19.1 12.9h28.4c10.6 0 20.2-9.2 20.8-19.8 0.1-4.6 0.4-9.4-1.6-13.7-3.2-7.6-11-13-19.2-13.2h-24.7c-3.2-0.1-6.4 0-9.5 1m1.8 105.4c-8.6 2.2-15.3 10.1-16 18.9-0.3 4.7-0.4 9.7 1.7 14.1 3.2 7.5 10.8 12.8 18.9 13.2 6.3 0.2 12.7 0 19 0.1 5.4-0.1 10.9 0.5 16-1.4 7.7-2.7 13.5-10 14.3-18 0.5-4.7 0.3-9.6-1.5-14-3.1-7.7-10.9-13.2-19.2-13.5-7.1-0.1-14.1 0-21.2 0-3.9-0.1-8-0.5-12 0.6z" p-id="10011" fill="#bfbfbf"></path><path d="M685.1 579.8c33.1-15.3 70.5-21.8 106.8-18.1 51 4 99.8 28.6 134.3 66.2 21 22.7 36.8 50.2 46 79.7 11.9 38.4 12.4 80.2 1.4 118.8-15.6 56.1-56.1 104.7-108.4 130.2-35.9 18-77.1 24.8-117 20.2-32.5-3.7-64.1-15.3-91.2-33.5-33.1-22-59.7-53.7-75.7-90.1-13.3-30.3-19.2-63.9-17-97 2-33.8 12.5-67.1 30.3-96 15.3-25.2 36.3-46.7 60.4-63.6 9.7-6.1 19.6-12.1 30.1-16.8m170.3 127.7c-31.4 34.5-62.6 69.1-94 103.6-24.5-22.1-48.8-44.3-73.3-66.4-8.8-8-23.6-7.4-31.8 1.1-7.1 6.9-8.9 18.4-4.4 27.1 1.8 3.9 5 6.7 8.2 9.5 29.3 26.5 58.5 53.1 87.8 79.6 9.1 8.1 24.5 7.2 32.5-2 36.5-40.2 73-80.5 109.5-120.8 3.3-3.6 5.5-8.2 6-13 1.2-9-3.3-18.3-11.1-22.9-9.2-5.7-22.2-3.9-29.4 4.2z" p-id="10012" fill="#bfbfbf"></path><path d="M422 610.9c12.1-9.3 27.3-14.5 42.6-14.3h149.5c-18.5 17.3-34.5 37.3-46.7 59.6-16.4 29.6-26.2 62.8-28.6 96.6-2.4 33.4 2.5 67.3 14.2 98.7 9.4 25 23.1 48.3 40.3 68.7 2.8 3.1 4.8 7 5.4 11.1 1.9 9.6-3.4 19.9-12.3 23.9-5.3 2.7-11.5 2-17.2 2.1H394.5V665.1c0.2-21.1 10.7-41.6 27.5-54.2z" p-id="10013" fill="#bfbfbf"></path></svg>