<?xml version="1.0" standalone="no"?><!DOCTYPE svg PUBLIC "-//W3C//DTD SVG 1.1//EN" "http://www.w3.org/Graphics/SVG/1.1/DTD/svg11.dtd"><svg t="1692595236086" class="icon" viewBox="0 0 1024 1024" version="1.1" xmlns="http://www.w3.org/2000/svg" p-id="13499" xmlns:xlink="http://www.w3.org/1999/xlink" width="128" height="128"><path d="M364.7 189.7l0 238L120.4 427.7l0-238L364.7 189.7M372.1 131.8 113 131.8c-27.9 0-50.5 22.6-50.5 50.5L62.5 435c0 27.9 22.6 50.5 50.5 50.5l259.1 0c27.9 0 50.5-22.6 50.5-50.5L422.6 182.3C422.7 154.4 400 131.8 372.1 131.8L372.1 131.8z" p-id="13500"></path><path d="M364.7 657.2l0 238L120.4 895.2l0-238L364.7 657.2M372.1 599.3 113 599.3c-27.9 0-50.5 22.6-50.5 50.5l0 252.7c0 27.9 22.6 50.5 50.5 50.5l259.1 0c27.9 0 50.5-22.6 50.5-50.5L422.6 649.9C422.7 622 400 599.3 372.1 599.3L372.1 599.3z" p-id="13501"></path><path d="M838.6 657.2l0 238L594.3 895.2l0-238L838.6 657.2M846 599.3 586.9 599.3c-27.9 0-50.5 22.6-50.5 50.5l0 252.7c0 27.9 22.6 50.5 50.5 50.5L846 953c27.9 0 50.5-22.6 50.5-50.5L896.5 649.9C896.5 622 873.9 599.3 846 599.3L846 599.3z" p-id="13502"></path><path d="M732.2 131.8l168.3 168.3L727.8 472.9 559.4 304.6 732.2 131.8M732.2 70.8c-12.9 0-25.9 4.9-35.7 14.8L513.3 268.8c-19.7 19.8-19.7 51.7 0 71.5L692 519c9.9 9.9 22.8 14.8 35.7 14.8 12.9 0 25.9-4.9 35.7-14.8l183.2-183.2c19.7-19.8 19.7-51.8 0-71.5L768 85.7C758.1 75.8 745.1 70.8 732.2 70.8L732.2 70.8z" p-id="13503"></path></svg>