<?xml version="1.0" standalone="no"?><!DOCTYPE svg PUBLIC "-//W3C//DTD SVG 1.1//EN" "http://www.w3.org/Graphics/SVG/1.1/DTD/svg11.dtd"><svg t="1692595319117" class="icon" viewBox="0 0 1133 1024" version="1.1" xmlns="http://www.w3.org/2000/svg" p-id="18358" xmlns:xlink="http://www.w3.org/1999/xlink" width="141.625" height="128"><path d="M178.896443 278.463241s-10.52332 709.109881-110.090119 730.966008H647.588933c-98.757312-102.804743-131.946245-730.966008-131.946245-730.966008H178.896443zM268.749407 118.994466c8.094862-8.094862 16.999209-11.332806 27.52253-14.570751 21.04664-6.475889 45.331225-7.285375 69.61581-7.285375h18.618182c6.475889 0 8.094862 0 12.142292-0.809486 3.237945 0 7.285375-0.809486 10.523321-1.618973 14.570751-2.428458 29.141502-6.475889 43.712252-16.189723 7.285375-4.856917 15.380237-13.761265 16.99921-25.903557 1.618972-11.332806-2.428458-21.04664-7.285376-27.52253-10.52332-12.142292-21.856126-19.427668-34.807905-25.094071 6.475889 12.142292 12.951779 24.284585 15.380237 34.807905 0.809486 4.856917 0 9.713834-0.809486 10.52332-0.809486 0.809486-3.237945 1.618972-7.285375 3.237945-8.094862 2.428458-19.427668 4.047431-30.760474 4.856917h-16.189724c-7.285375 0-13.761265-0.809486-21.04664-0.809486-27.52253 0-56.664032 4.047431-84.186561 19.427668-12.951779 8.094862-25.903557 19.427668-31.569961 34.807905-5.666403 15.380237-4.856917 31.56996 1.618972 43.712253 4.047431-13.761265 9.713834-25.094071 17.808696-31.569961z m415.266403 12.951779c-8.904348-19.427668-21.856126-33.998419-36.426877-46.950198 6.475889 17.808696 13.761265 35.617391 15.380237 51.807115 0.809486 8.094862-0.809486 15.380237-4.047431 17.808696-2.428458 3.237945-7.285375 5.666403-14.570751 7.285375-13.761265 2.428458-31.56996 1.618972-47.759684-0.809486l-12.951778-1.618972c-4.047431-0.809486-9.713834-1.618972-11.332807-2.428459-9.713834-2.428458-18.618182-4.856917-28.332015-7.285375-38.04585-8.094862-78.520158-11.332806-119.803953 0-20.237154 6.475889-39.664822 17.808696-52.616601 34.807905-12.951779 16.999209-17.808696 38.855336-13.761265 58.283004 5.666403-18.618182 16.189723-33.998419 29.141502-42.902767 12.951779-10.52332 28.332016-14.570751 44.521739-16.189723 33.188933-4.047431 67.996838 1.618972 102.804744 9.713834 8.904348 1.618972 16.999209 4.047431 25.903557 6.475889 8.094862 1.618972 10.52332 1.618972 16.189723 2.428459 4.856917 0 10.52332 0.809486 15.380237 0.809486 20.237154 0 41.283794 0.809486 63.139921-8.094862 10.52332-4.047431 23.475099-12.142292 29.141502-25.903557 6.475889-13.761265 4.047431-27.52253 0-37.236364z" p-id="18359" fill="#bfbfbf"></path><path d="M668.635573 556.926482s-6.475889 432.265613-67.187352 445.217392h352.935969c-60.711462-62.330435-80.13913-445.217391-80.139131-445.217392h-205.609486z m48.56917-85.805533c3.237945-5.666403 8.904348-9.713834 14.570751-12.142293 11.332806-6.475889 25.903557-10.52332 40.474308-13.761265l10.523321-2.428458c4.047431-0.809486 4.856917-0.809486 7.285375-2.428459 1.618972-0.809486 4.047431-1.618972 6.475889-2.428458 8.094862-3.237945 16.189723-8.094862 24.284585-16.189724 3.237945-4.047431 7.285375-10.52332 7.285376-17.808695 0-7.285375-4.856917-12.142292-8.094862-15.380237-8.094862-6.475889-15.380237-8.904348-24.284585-10.52332 5.666403 6.475889 11.332806 12.142292 13.761265 18.618181 1.618972 2.428458 1.618972 5.666403 0.809486 6.47589-0.809486 0.809486-1.618972 1.618972-4.047431 3.237944-4.047431 2.428458-11.332806 5.666403-17.808695 7.285376l-4.856917 1.618972c-0.809486 0-4.047431 0.809486-4.047431 0.809486l-12.142293 2.428459c-16.189723 4.047431-33.188933 9.713834-46.950197 23.475099-6.475889 6.475889-12.142292 15.380237-13.761265 25.094071-1.618972 9.713834 0.809486 19.427668 7.285375 25.903557-2.428458-8.904348-0.809486-16.189723 3.237945-21.856126z m259.035573-3.237945c-4.856917-12.142292-12.951779-21.04664-21.856126-28.332016 4.047431 10.52332 8.904348 21.856126 9.713834 31.569961 0 4.856917 0 9.713834-2.428459 10.52332-1.618972 1.618972-4.856917 3.237945-8.904348 4.047431-8.904348 1.618972-18.618182 0.809486-29.141502 0l-8.094861-0.809487c-2.428458 0-5.666403-0.809486-7.285376-0.809486-5.666403-1.618972-11.332806-3.237945-16.999209-4.047431-23.475099-4.856917-47.759684-7.285375-72.853755 0-12.142292 3.237945-24.284585 10.52332-32.379447 21.046641s-10.52332 23.475099-8.094861 35.617391c3.237945-11.332806 9.713834-20.237154 16.999209-25.903557 8.094862-5.666403 16.999209-8.904348 27.52253-10.52332 20.237154-2.428458 41.283794 0.809486 63.139921 5.666403 5.666403 0.809486 10.52332 2.428458 16.189723 4.047431 4.856917 0.809486 6.475889 0.809486 10.52332 1.618972 3.237945 0 6.475889 0.809486 9.713834 0.809486 12.142292 0 25.094071 0 38.04585-4.856917 6.475889-2.428458 14.570751-7.285375 17.808696-16.189723 3.237945-9.713834 0.809486-17.808696-1.618973-23.475099z" p-id="18360" fill="#bfbfbf"></path><path d="M0 981.097233h1133.280632v42.902767H0v-42.902767z" p-id="18361" fill="#bfbfbf"></path></svg>