<?xml version="1.0" standalone="no"?><!DOCTYPE svg PUBLIC "-//W3C//DTD SVG 1.1//EN" "http://www.w3.org/Graphics/SVG/1.1/DTD/svg11.dtd"><svg t="1692594965755" class="icon" viewBox="0 0 1024 1024" version="1.1" xmlns="http://www.w3.org/2000/svg" p-id="6371" xmlns:xlink="http://www.w3.org/1999/xlink" width="128" height="128"><path d="M743.936 190.464a152.448 152.448 0 0 1 152.32 152.32v334.72a152.512 152.512 0 0 1-152.32 152.256h-451.2a152.512 152.512 0 0 1-152.32-152.32v-334.72a152.512 152.512 0 0 1 152.32-152.32zM410.88 324.48a119.168 119.168 0 0 0-77.568 208.32 5.888 5.888 0 0 1-0.32 9.152c-31.36 24-51.648 61.76-51.648 104.32a23.744 23.744 0 0 0 23.872 23.808H519.68a23.808 23.808 0 0 0 23.872-23.872 129.984 129.984 0 0 0-51.584-104.192 6.016 6.016 0 0 1-0.256-9.216c24.96-22.208 40.576-54.848 40-91.008A119.68 119.68 0 0 0 410.88 324.48z m358.208 90.88h-161.28a25.344 25.344 0 1 0 0 50.624h161.28a25.344 25.344 0 1 0 0-50.688z m-46.4 135.168H607.936a25.344 25.344 0 1 0 0 50.688h114.816a25.344 25.344 0 1 0 0-50.688z" fill="#bfbfbf" p-id="6372"></path></svg>