<?xml version="1.0" standalone="no"?><!DOCTYPE svg PUBLIC "-//W3C//DTD SVG 1.1//EN" "http://www.w3.org/Graphics/SVG/1.1/DTD/svg11.dtd"><svg t="1692595400537" class="icon" viewBox="0 0 1024 1024" version="1.1" xmlns="http://www.w3.org/2000/svg" p-id="20712" xmlns:xlink="http://www.w3.org/1999/xlink" width="128" height="128"><path d="M874.203429 144.676571c54.564571 0 98.742857 45.056 98.742857 100.571429v533.504c0 55.588571-44.178286 100.644571-98.742857 100.644571H149.723429c-54.564571 0-98.742857-45.056-98.742858-100.644571V245.248c0-55.588571 44.178286-100.571429 98.742858-100.571429h724.48zM788.260571 626.102857H663.844571a34.962286 34.962286 0 0 0-29.549714 20.114286l-1.682286 4.388571-9.508571 32.768c-3.584 12.288 2.340571 22.528 13.458286 24.283429l3.510857 0.292571h124.489143c11.849143 0 24.137143-8.777143 29.549714-20.187428l1.682286-4.388572 9.508571-32.694857c3.510857-12.361143-2.413714-22.528-13.531428-24.283428l-3.437715-0.292572zM170.642286 244.297143a15.652571 15.652571 0 0 0-15.36 13.677714l-0.146286 2.121143L155.062857 333.531429h713.801143V260.096c0-8.045714-5.851429-14.628571-13.385143-15.652571l-2.194286-0.146286H170.715429z" fill="#bfbfbf" p-id="20713"></path></svg>