<?xml version="1.0" standalone="no"?><!DOCTYPE svg PUBLIC "-//W3C//DTD SVG 1.1//EN" "http://www.w3.org/Graphics/SVG/1.1/DTD/svg11.dtd"><svg t="1692595130454" class="icon" viewBox="0 0 1024 1024" version="1.1" xmlns="http://www.w3.org/2000/svg" p-id="11171" xmlns:xlink="http://www.w3.org/1999/xlink" width="128" height="128"><path d="M860.672 415.0272 143.83104 415.0272c-9.216 0-18.432-7.08608-18.432-18.432l0 0c0-9.216 7.08608-17.73568 18.432-17.73568l716.84096 0c9.216 0 18.41152 8.51968 18.41152 17.73568l0 0C879.104 405.8112 871.30112 415.0272 860.672 415.0272L860.672 415.0272z" fill="#bfbfbf" p-id="11172"></path><path d="M830.17728 315.06432l-319.0784-204.20608c-3.54304-2.12992-7.08608-2.12992-10.62912-2.12992s-7.08608 0-11.34592 2.12992L170.76224 315.06432c-9.216 5.65248-10.62912 16.30208-5.65248 25.51808 5.65248 9.216 16.30208 10.62912 25.51808 5.67296l309.8624-199.24992 309.8624 199.24992c8.4992 4.95616 19.84512 3.54304 24.82176-5.67296C840.82688 331.3664 837.28384 320.73728 830.17728 315.06432L830.17728 315.06432z" fill="#bfbfbf" p-id="11173"></path><path d="M860.672 876.6464 143.83104 876.6464c-9.216 0-18.432-9.23648-18.432-17.75616l0 0c0-9.19552 7.08608-18.39104 18.432-18.39104l716.84096 0c9.216 0 18.41152 7.08608 18.41152 18.39104l0 0C879.104 867.40992 871.30112 876.6464 860.672 876.6464L860.672 876.6464z" fill="#bfbfbf" p-id="11174"></path><path d="M161.54624 798.63808 161.54624 798.63808c-10.6496 0-17.7152-9.23648-17.7152-17.75616L143.83104 490.9056c0-9.216 7.08608-18.45248 17.7152-18.45248l0 0c9.216 0 18.432 9.23648 18.432 18.45248l0 289.97632C179.99872 791.552 172.89216 798.63808 161.54624 798.63808L161.54624 798.63808z" fill="#bfbfbf" p-id="11175"></path><path d="M842.93632 798.63808 842.93632 798.63808c-9.19552 0-18.432-9.23648-18.432-17.75616L824.50432 490.9056c0-9.216 9.23648-18.45248 18.432-18.45248l0 0c8.4992 0 17.73568 9.23648 17.73568 18.45248l0 289.97632C860.672 791.552 853.58592 798.63808 842.93632 798.63808L842.93632 798.63808z" fill="#bfbfbf" p-id="11176"></path><path d="M297.69728 798.63808 297.69728 798.63808c-11.34592 0-18.45248-9.23648-18.45248-17.75616L279.2448 490.9056c0-9.216 7.10656-18.45248 18.45248-18.45248l0 0c9.216 0 17.7152 9.23648 17.7152 18.45248l0 289.97632C315.41248 791.552 308.3264 798.63808 297.69728 798.63808L297.69728 798.63808z" fill="#bfbfbf" p-id="11177"></path><path d="M433.11104 798.63808 433.11104 798.63808c-10.62912 0-17.73568-9.23648-17.73568-17.75616L415.37536 490.9056c0-9.216 7.10656-18.45248 17.73568-18.45248l0 0c9.23648 0 18.432 9.23648 18.432 18.45248l0 289.97632C451.54304 791.552 444.47744 798.63808 433.11104 798.63808L433.11104 798.63808z" fill="#bfbfbf" p-id="11178"></path><path d="M570.6752 798.63808 570.6752 798.63808c-10.6496 0-17.73568-9.23648-17.73568-17.75616L552.93952 490.9056c0-9.216 9.216-18.45248 17.73568-18.45248l0 0c9.216 0 18.41152 9.23648 18.41152 18.45248l0 289.97632C589.1072 791.552 579.8912 798.63808 570.6752 798.63808L570.6752 798.63808z" fill="#bfbfbf" p-id="11179"></path><path d="M706.82624 798.63808 706.82624 798.63808c-10.67008 0-18.432-9.23648-18.432-17.75616L688.39424 490.9056c0-9.216 7.7824-18.45248 18.432-18.45248l0 0c9.19552 0 18.41152 9.23648 18.41152 18.45248l0 289.97632C725.23776 791.552 716.02176 798.63808 706.82624 798.63808L706.82624 798.63808z" fill="#bfbfbf" p-id="11180"></path></svg>