<?xml version="1.0" standalone="no"?><!DOCTYPE svg PUBLIC "-//W3C//DTD SVG 1.1//EN" "http://www.w3.org/Graphics/SVG/1.1/DTD/svg11.dtd"><svg t="1692594777112" class="icon" viewBox="0 0 1024 1024" version="1.1" xmlns="http://www.w3.org/2000/svg" p-id="3143" xmlns:xlink="http://www.w3.org/1999/xlink" width="128" height="128"><path d="M511.833 1018.199c-29.476 0-59.506-2.837-89.003-7.934a28.281 28.281 0 0 1-22.672-32.867 28.281 28.281 0 0 1 32.867-22.693c50.463 9.085 101.48 9.64 151.921 1.151a443.691 443.691 0 0 0 147.378-53.853c52.745-30.628 98.089-70.298 134.368-118.479a450.921 450.921 0 0 0 75.95-155.333c14.737-56.093 19.28-113.936 11.9-171.18a436.994 436.994 0 0 0-57.244-168.365c-28.9-49.311-63.494-90.134-106.001-124.13-11.902-9.662-14.184-27.791-3.967-39.693 10.194-11.9 27.769-14.183 39.67-3.967a490.165 490.165 0 0 1 119.054 140.02 502.962 502.962 0 0 1 64.049 189.885 505.905 505.905 0 0 1-13.032 193.32 501.917 501.917 0 0 1-85.59 174.592A494.793 494.793 0 0 1 760.115 951.89c-51.593 30.03-107.708 51.017-166.083 60.636-27.215 3.413-54.43 5.674-82.2 5.674zM180.776 884.983c-6.803 0-13.607-2.837-19.28-7.359a424.517 424.517 0 0 1-87.873-113.38A503.623 503.623 0 0 1 9.596 574.913c-7.934-64.625-3.413-129.804 13.607-193.298S68.568 259.17 108.24 207.022A494.793 494.793 0 0 1 259.584 73.806C342.892 25.605 439.274 2.356 537.341 6.9c15.293 0.576 27.77 14.183 26.64 29.497-0.576 15.292-14.163 27.769-29.476 26.639a447.125 447.125 0 0 0-246.597 58.95C235.206 153.17 189.84 192.84 153.56 241.02a450.921 450.921 0 0 0-75.95 155.333c-14.737 56.115-19.28 113.935-11.9 171.18a436.994 436.994 0 0 0 57.244 168.365c0 0.576 0.576 0.576 0.576 1.13 18.705 35.726 44.214 68.038 76.526 98.644 11.325 10.77 11.901 28.345 1.706 40.246a30.713 30.713 0 0 1-20.987 9.065z m331.057 138.889c-30.052 0-60.103-2.837-90.133-8.51a34.552 34.552 0 0 1-22.118-14.162 33.784 33.784 0 0 1-5.673-25.508 34.552 34.552 0 0 1 14.183-22.118c7.359-5.097 16.423-7.358 25.509-5.652a428.27 428.27 0 0 0 149.66 1.13 426.095 426.095 0 0 0 145.672-53.299h0.576c52.147-30.03 96.937-69.146 132.661-116.772a442.774 442.774 0 0 0 74.82-153.051 450.239 450.239 0 0 0 11.9-169.495 434.221 434.221 0 0 0-56.135-166.083c-28.324-48.757-62.918-89.003-104.87-123.021-14.717-11.902-17-33.443-5.098-47.605 11.9-14.738 33.442-17.02 47.626-5.119 48.756 39.116 87.872 85.612 120.739 141.726a505.628 505.628 0 0 1 65.2 192.168 495.156 495.156 0 0 1-13.607 195.58 503.773 503.773 0 0 1-86.166 176.853 506.503 506.503 0 0 1-153.052 134.922c-52.169 30.606-108.838 51.572-168.365 61.212a511.152 511.152 0 0 1-83.33 6.804zM180.776 890.656c-8.51 0-16.998-3.413-23.248-9.065-37.41-35.17-66.885-73.134-88.98-114.51A502.066 502.066 0 0 1 3.922 575.488a517.124 517.124 0 0 1 13.586-195.58 503.773 503.773 0 0 1 86.166-176.854A506.503 506.503 0 0 1 256.747 68.133C341.207 19.377 438.144-3.871 537.341 0.672c18.705 1.13 33.443 16.998 32.313 35.725a34.168 34.168 0 0 1-34.019 32.29h-1.706c-86.166-3.967-170.05 15.89-243.739 58.397-51.593 30.606-96.382 69.744-132.086 117.348a453.033 453.033 0 0 0-74.82 153.051A438.722 438.722 0 0 0 71.939 566.98a434.221 434.221 0 0 0 56.115 166.083 1.749 1.749 0 0 1 0.576 1.13c18.705 35.149 43.083 66.907 75.395 96.937 6.804 6.249 10.195 14.738 10.77 23.824 0.555 9.064-2.836 17.574-9.085 24.378a32.355 32.355 0 0 1-24.933 11.325z m303.288-476.174L386.55 310.187c-13.032-13.032-10.77-34.573 2.26-47.626 13.054-13.031 34.595-10.77 47.627 2.282l97.49 103.72c13.054 13.052 10.772 34.594-2.26 47.625-14.738 11.347-34.573 11.347-47.626-1.706z m24.356 15.314c-10.195 0-20.41-3.967-28.345-11.347l-97.491-104.295c-14.738-14.738-13.608-39.67 2.26-55.56 14.738-14.716 39.671-13.607 55.56 2.282l97.492 103.72c14.738 14.737 13.607 39.67-2.26 55.56l-0.577 0.575-0.554 0.555a44.747 44.747 0 0 1-26.085 8.51z m-19.835-61.212l103.74-97.513c13.032-13.031 34.574-10.77 47.605 2.26a33.357 33.357 0 0 1-2.26 45.366l-103.741 97.491a33.87 33.87 0 0 1-47.605 0c-13.053-12.477-10.77-34.573 2.261-47.626z m21.542 63.472c-10.771 0-20.411-3.967-27.77-11.325-7.38-7.38-10.77-17.574-10.216-28.366 0.576-10.195 5.119-20.39 12.477-27.194l103.74-97.512c14.717-14.717 39.671-13.587 55.56 2.282l0.555 0.554a39.35 39.35 0 0 1-2.837 53.3l-103.74 97.49a40.481 40.481 0 0 1-27.77 10.771zM800.36 93.642l147.378 28.345c17.575 4.521 30.073 21.541 26.085 39.116v2.26c-4.522 17.575-21.542 30.052-39.116 26.085L787.33 161.08c-17.575-4.521-30.052-21.541-26.085-39.094v-2.261c4.543-17.574 22.118-30.627 39.116-26.084z m141.726 99.773c-2.837 0-5.119-0.576-7.38-1.13L787.33 163.918a41.249 41.249 0 0 1-23.248-15.868c-5.674-7.934-7.358-17.553-5.674-26.64v-2.836c5.12-19.835 24.955-32.867 43.083-28.345l147.379 28.367c9.085 2.26 17.595 7.912 23.247 15.868 5.674 7.934 7.38 17.574 5.674 26.639v2.836a41.249 41.249 0 0 1-15.869 23.248c-6.803 3.946-13.607 6.228-19.835 6.228zM61.743 809.033l147.378 28.345c17.575 4.522 30.052 21.542 26.085 39.116v2.26c-4.543 17.575-21.542 30.052-39.116 26.085L48.712 876.473c-17.596-4.522-30.073-21.542-26.085-39.095v-2.282c2.261-17.575 21.542-30.606 39.116-26.063z m141.15 99.197c-2.282 0-5.118-0.575-7.379-1.13L48.136 878.733c-19.835-5.076-32.888-24.356-28.367-42.485v-2.282c1.152-9.065 6.825-17.575 14.76-23.248 8.488-5.652 18.704-7.934 28.345-5.652l147.378 28.345c9.064 2.26 17.574 7.934 23.248 15.868 5.673 7.934 7.358 17.575 5.673 26.66v2.816c-5.119 17.574-20.411 29.475-36.28 29.475z m467.665-422.298h-318.58c-17.575 0-30.052-13.053-30.052-30.073v-6.783c0-17.574 13.032-30.072 30.052-30.072h318.58c17.574 0 30.03 13.052 30.03 30.072v6.228c0.576 17.575-12.456 30.606-30.03 30.606z m0 5.652h-318.58c-20.411 0-36.28-15.314-36.28-36.28v-6.228c0-20.41 15.293-36.279 36.259-36.279h318.6c20.412 0 36.259 15.292 36.259 36.258v6.25c0 20.965-15.847 36.257-36.258 36.257zM479.52 720.03V479.107c0-17.575 13.031-30.03 30.03-30.03h6.249c17.574 0 30.03 13.01 30.03 30.03v242.63c0 17.574-13.01 30.03-30.03 30.03h-8.51a31.971 31.971 0 0 1-27.77-31.737z m-5.12-76.526v-78.786h78.809v78.786h-78.787z" fill="#bfbfbf" p-id="3144"></path><path d="M351.978 424.122c-14.183 0-24.954 10.217-24.954 24.954v6.228c0 14.162 10.216 24.954 24.954 24.954h318.58c14.161 0 24.954-10.216 24.954-24.954v-6.228c0-14.183-10.238-24.954-24.954-24.954h-318.58z m0 213.155c-17.575 0-30.052-13.053-30.052-30.073v-6.207c0-17.574 13.032-30.072 30.052-30.072h318.58c17.574 0 30.03 13.052 30.03 30.072v6.228c0.576 16.999-12.456 30.052-30.03 30.052h-318.58z m137.63-225.29l0.683 0.81c5.098 5.098 12.477 7.934 19.836 7.934 7.38 0 14.737-2.836 19.835-7.934l103.74-97.513c10.217-10.194 10.771-26.66 1.707-37.41-11.347-11.346-29.476-11.9-39.67-2.26 0.404 0-53.47 50.718-83.522 79l-79.768-85.804c-11.304-11.346-29.454-12.477-39.67-2.282-11.326 11.347-12.456 29.476-2.261 39.67l97.491 104.317a34.368 34.368 0 0 0 1.6 1.472z" fill="#bfbfbf" p-id="3145"></path><path d="M194.576 837.74l12.84 2.475c7.933 1.706 14.737 6.803 19.28 13.01 5.119 6.825 6.228 14.183 4.543 21.541v2.858c-3.989 16.423-19.835 27.215-34.595 23.248L49.266 872.506c-16.422-3.946-27.214-19.836-23.802-35.128v-2.837a27.3 27.3 0 0 1 11.901-18.129 29.774 29.774 0 0 1 22.672-4.543l59.89 11.518a394.572 394.572 0 0 1-40.61-61.98c-34.018-57.8-55.005-120.74-63.493-187.049A494.282 494.282 0 0 1 28.855 383.3a501.512 501.512 0 0 1 84.46-172.886c40.246-53.854 90.709-98.068 149.66-132.086 75.395-43.638 160.986-66.33 249.412-66.33h24.954a22.779 22.779 0 0 1 21.542 23.823 22.779 22.779 0 0 1-23.824 21.541c-87.872-4.543-174.593 15.868-249.412 59.506-53.854 31.182-99.773 71.45-136.607 120.185A450.068 450.068 0 0 0 72.514 394.07a447.445 447.445 0 0 0-11.922 173.462 448.383 448.383 0 0 0 57.82 170.626l0.576 1.152a359.167 359.167 0 0 0 75.588 98.43zM877.27 174.796a510.747 510.747 0 0 1 63.686 87.212 494.73 494.73 0 0 1 63.473 187.624 494.282 494.282 0 0 1-13.01 191.037 501.512 501.512 0 0 1-84.482 172.886c-40.246 53.854-90.709 98.068-149.66 132.086a478.947 478.947 0 0 1-164.398 60.082 495.732 495.732 0 0 1-81.623 6.825c-28.9 0-58.951-2.837-87.872-7.956a22.117 22.117 0 0 1-14.717-9.619 22.352 22.352 0 0 1-3.412-17.02c1.13-6.227 4.543-11.325 9.64-14.716 3.967-2.282 8.51-3.988 13.032-3.988 1.13 0 2.836 0.575 4.543 0.575 51.017 9.62 102.588 9.62 153.627 1.13a445.824 445.824 0 0 0 149.084-54.429c53.278-31.182 99.176-71.428 136.031-120.163a450.068 450.068 0 0 0 76.547-157.04 451.092 451.092 0 0 0 11.902-174.038 448.383 448.383 0 0 0-57.821-170.626 451.305 451.305 0 0 0-107.047-125.751l-6.334-1.216a38.178 38.178 0 0 1-19.28-12.455 25.103 25.103 0 0 1-4.522-21.542v-2.858c3.967-16.444 19.835-27.215 34.573-23.248l147.378 27.77c7.934 1.706 14.738 6.825 19.28 13.053 5.12 6.803 6.228 14.161 4.543 21.541v2.815c-1.706 7.38-6.825 14.184-13.053 18.727-6.803 5.097-14.161 6.227-21.541 4.521l-58.567-11.261z" fill="#bfbfbf" p-id="3146"></path><path d="M541.863 632.158v89.578c0 14.717-10.77 24.954-24.933 24.954h-8.51a27.45 27.45 0 0 1-22.672-27.236v-87.296h-133.77c-14.738 0-24.954-10.77-24.954-24.954v-6.207c0-14.737 10.77-24.954 24.954-24.954h133.77v-96.936c0-14.717 10.771-24.954 24.954-24.954h6.228c14.738 0 24.954 10.792 24.954 24.954v96.936h128.674c14.716 0 24.954 10.771 24.954 24.954v6.228c0 14.738-10.793 24.954-24.954 24.954H541.863z" fill="#bfbfbf" p-id="3147"></path></svg>