<?xml version="1.0" standalone="no"?><!DOCTYPE svg PUBLIC "-//W3C//DTD SVG 1.1//EN" "http://www.w3.org/Graphics/SVG/1.1/DTD/svg11.dtd"><svg t="1688663628566" class="icon" viewBox="0 0 1024 1024" version="1.1" xmlns="http://www.w3.org/2000/svg" p-id="1396" xmlns:xlink="http://www.w3.org/1999/xlink" width="128" height="128"><path d="M511.998194 512m-511.998194 0a511.998194 511.998194 0 1 0 1023.996388 0 511.998194 511.998194 0 1 0-1023.996388 0Z" fill="#06B666" p-id="1397"></path><path d="M512 802.255855c-102.427093 0.146304-183.018799-29.165026-241.775119-87.923151-58.756319-58.749094-88.06223-139.348025-87.923151-241.775118 102.618553 0.050574 183.212065 29.356485 241.776925 87.923151 58.45468 58.445649 87.758785 138.840478 87.921345 241.179066-0.0289-102.148935 29.275205-182.541958 87.923151-241.179066 58.756319-58.756319 139.348025-88.06223 241.775119-87.923151-0.043349 102.618553-29.34926 183.212065-87.923151 241.775118-58.56486 58.566666-139.156566 87.872577-241.775119 87.923151z" fill="#FFFFFF" opacity=".5" p-id="1398"></path><path d="M511.998194 803.415448c90.666798-90.748078 135.993876-187.884755 135.993876-291.415448s-45.334302-200.66737-135.993876-291.415448c-90.659573 90.410315-135.993876 187.545185-135.993876 291.415448s45.334302 201.005133 135.993876 291.415448z" fill="#FFFFFF" p-id="1399"></path></svg>